# xmcd
#
# Track frame offsets:
# 150
# 4660
# 26335
# 37322
# 55085
# 73917
# 88830
# 106322
# 124767
# 140907
# 160275
# 179995
# 198192
# 230267
#
# Disc length: 3289 seconds
#
#
# Revision: 9
# Processed by: cddbd v1.5.1PL2 Copyright (c) Steve Scherf et al.
# Submitted via: FreeRIP 2.945 
#
DISCID=ca0cd70e
DTITLE=Solaris - Volume 01
DYEAR=2002
DGENRE=New Age
TTITLE0=Andreas Vollenweider - La Strega
TTITLE1=Vangelis - Conquest of Paradise
TTITLE2=Clannad - Theme from Harry's Game
TTITLE3=Luar na Lumbre - Romeiro ao Lonxe
TTITLE4=Eric Levi - Ameno
TTITLE5=Jan Hammer - Crockett's Theme
TTITLE6=Jean Michel Jarre - Oxygene 8
TTITLE7=Yanni - Within Attraction
TTITLE8=Sarah Jones - Shalott Blue
TTITLE9=Sacred Spirits - Looking far North
TTITLE10=Deep Forest - Savana Dance
TTITLE11=Sabah Ali - Busindre Reel
TTITLE12=Robert Miles - Children
TTITLE13=Woukase - Winter of Lust
EXTD=YEAR: 2002
EXTT0=
EXTT1=
EXTT2=
EXTT3=
EXTT4=
EXTT5=
EXTT6=
EXTT7=
EXTT8=
EXTT9=
EXTT10=
EXTT11=
EXTT12=
EXTT13=
PLAYORDER=
